<svg width="40" height="40" viewBox="0 0 40 40" fill="none" xmlns="http://www.w3.org/2000/svg">
<path d="M19.9997 19.1673C18.8946 19.1673 17.8348 18.7283 17.0534 17.9469C16.272 17.1655 15.833 16.1057 15.833 15.0007C15.833 13.8956 16.272 12.8358 17.0534 12.0544C17.8348 11.273 18.8946 10.834 19.9997 10.834C21.1047 10.834 22.1646 11.273 22.946 12.0544C23.7274 12.8358 24.1663 13.8956 24.1663 15.0007C24.1663 15.5478 24.0586 16.0896 23.8492 16.5952C23.6398 17.1007 23.3329 17.56 22.946 17.9469C22.559 18.3338 22.0997 18.6408 21.5942 18.8501C21.0887 19.0595 20.5468 19.1673 19.9997 19.1673ZM19.9997 3.33398C16.9055 3.33398 13.938 4.56315 11.7501 6.75107C9.56217 8.939 8.33301 11.9065 8.33301 15.0007C8.33301 23.7507 19.9997 36.6673 19.9997 36.6673C19.9997 36.6673 31.6663 23.7507 31.6663 15.0007C31.6663 11.9065 30.4372 8.939 28.2493 6.75107C26.0613 4.56315 23.0939 3.33398 19.9997 3.33398Z" fill="#FD4A09" fill-opacity="0.8"/>
</svg>
